# xmcd
#
# Track frame offsets: 
#        150
#        22805
#        40930
#        57061
#        77415
#        96662
#        113846
#        134494
#        153564
#        173316
#        192928
#        197975
#        230249
#        247227
#        264147
#        296210
#        329341
#
# Disc length: 4617 seconds
#
# Revision: 0
# Processed by: cddbd v1.5.2PL0 Copyright (c) Steve Scherf et al.
# Submitted via: ExactAudioCopy v1.3
#
DISCID=f1120711
DTITLE=Rhonda Clark - Between Friends - Expanded
DYEAR=1989
DGENRE=Funk
TTITLE0=Does That Make A Man
TTITLE1=State Of Attraction
TTITLE2=I Love Your Body
TTITLE3=Instant Attitude
TTITLE4=The Way You Are
TTITLE5=Sugar
TTITLE6=Stay Here, Stay Near
TTITLE7=Between Friends
TTITLE8=You're My Everything (Duet With Chuck Howard)
TTITLE9=No Matter How
TTITLE10=Stay (Reprise)
TTITLE11=State Of Attraction (12'' Club Mix)
TTITLE12=State Of Attraction (Radio Mix)
TTITLE13=State Of Attraction (Alternate Radio Mix)
TTITLE14=State Of Attraction (12'' Dub Mix)
TTITLE15=State Of Attraction (Alternate Dub Mix)
TTITLE16=State Of Attraction (Jazz Version)
EXTD=
EXTT0=
EXTT1=
EXTT2=
EXTT3=
EXTT4=
EXTT5=
EXTT6=
EXTT7=
EXTT8=
EXTT9=
EXTT10=
EXTT11=
EXTT12=
EXTT13=
EXTT14=
EXTT15=
EXTT16=
PLAYORDER=
